<?xml version="1.0" encoding="utf-8" ?>
<svg baseProfile="full" height="589" version="1.1" viewBox="0 0 589 589" width="589" xmlns="http://www.w3.org/2000/svg" xmlns:ev="http://www.w3.org/2001/xml-events" xmlns:xlink="http://www.w3.org/1999/xlink"><defs /><rect fill="#b30b33" height="589" rx="80" ry="80" width="589" x="0" y="0" /><path d="M 401.0,532.5 L 355.5,527.0 L 316.5,330.0 L 358.0,333.5 L 362.5,336.0 L 383.0,442.5 L 466.0,452.5 L 466.5,449.0 L 433.5,317.0 L 522.0,324.5 L 531.5,367.0 L 489.0,362.5 L 487.5,364.0 L 523.5,499.0 L 392.0,485.5 L 401.0,532.5 Z" fill="#ffffff" stroke="none" /><path d="M 337.0,525.5 L 292.0,521.5 L 283.0,476.5 L 154.0,463.5 L 150.5,453.0 L 132.5,351.0 L 128.0,348.5 L 82.0,344.5 L 74.5,302.0 L 169.0,310.5 L 170.5,312.0 L 191.5,423.0 L 194.0,424.5 L 275.0,432.5 L 253.5,322.0 L 298.0,327.5 L 337.0,525.5 Z" fill="#ffffff" stroke="none" /><path d="M 167.0,294.5 L 71.5,285.0 L 65.0,242.5 L 114.5,247.0 L 89.5,110.0 L 218.0,126.5 L 219.5,125.0 L 211.5,84.0 L 254.0,89.5 L 285.5,261.0 L 242.0,257.5 L 240.5,256.0 L 226.0,166.5 L 142.0,155.5 L 141.5,160.0 L 167.0,294.5 Z" fill="#ffffff" stroke="none" /><path d="M 518.0,307.5 L 429.5,299.0 L 407.5,201.0 L 403.0,187.5 L 331.0,178.5 L 330.5,183.0 L 349.5,268.0 L 304.0,263.5 L 272.5,93.0 L 313.0,98.5 L 323.0,138.5 L 437.0,153.5 L 464.5,260.0 L 509.0,264.5 L 518.0,307.5 Z" fill="#ffffff" stroke="none" /></svg>