<?xml version="1.0" encoding="UTF-8"?>
<svg xmlns="http://www.w3.org/2000/svg" width="1024" height="1024" viewBox="0 0 1024 1024">
  <path fill="#b01032" fill-rule="evenodd" d="M 242.00 96.00 L 220.00 136.00 L 220.00 610.00 L 236.00 644.00 L 276.00 664.00 L 746.00 664.00 L 780.00 650.00 L 802.00 614.00 L 802.00 132.00 L 790.00 106.00 L 772.00 90.00 L 750.00 82.00 L 274.00 82.00 Z M 738.00 400.00 L 746.00 442.00 L 706.00 442.00 L 738.00 574.00 L 608.00 564.00 L 616.00 606.00 L 572.00 606.00 L 534.00 408.00 L 558.00 406.00 L 580.00 412.00 L 600.00 518.00 L 680.00 526.00 L 652.00 396.00 Z M 290.00 380.00 L 386.00 386.00 L 408.00 498.00 L 488.00 508.00 L 470.00 400.00 L 512.00 402.00 L 552.00 600.00 L 508.00 600.00 L 498.00 554.00 L 370.00 542.00 L 346.00 428.00 L 298.00 422.00 Z M 488.00 172.00 L 528.00 172.00 L 540.00 214.00 L 652.00 228.00 L 682.00 336.00 L 724.00 340.00 L 732.00 382.00 L 646.00 378.00 L 620.00 270.00 L 610.00 264.00 L 548.00 258.00 L 564.00 342.00 L 520.00 342.00 Z M 468.00 164.00 L 474.00 174.00 L 500.00 336.00 L 476.00 338.00 L 454.00 332.00 L 440.00 244.00 L 358.00 234.00 L 382.00 368.00 L 364.00 372.00 L 288.00 364.00 L 280.00 322.00 L 328.00 322.00 L 306.00 188.00 L 432.00 200.00 L 428.00 162.00 Z"/>
  <path fill="#ffffff" fill-rule="evenodd" d="M 802.00 620.00 L 794.00 638.00 L 778.00 654.00 L 758.00 664.00 L 802.00 664.00 Z M 220.00 620.00 L 220.00 664.00 L 264.00 664.00 L 242.00 652.00 Z M 736.00 402.00 L 652.00 396.00 L 680.00 512.00 L 678.00 528.00 L 600.00 520.00 L 576.00 412.00 L 534.00 408.00 L 574.00 604.00 L 614.00 606.00 L 608.00 576.00 L 612.00 562.00 L 736.00 574.00 L 706.00 458.00 L 708.00 440.00 L 744.00 442.00 Z M 292.00 380.00 L 298.00 420.00 L 346.00 424.00 L 350.00 430.00 L 370.00 538.00 L 494.00 550.00 L 502.00 560.00 L 508.00 596.00 L 550.00 600.00 L 512.00 404.00 L 470.00 400.00 L 490.00 506.00 L 458.00 508.00 L 406.00 500.00 L 384.00 388.00 Z M 490.00 170.00 L 520.00 338.00 L 562.00 342.00 L 548.00 276.00 L 550.00 256.00 L 618.00 262.00 L 646.00 376.00 L 732.00 382.00 L 724.00 342.00 L 678.00 334.00 L 652.00 232.00 L 538.00 216.00 L 528.00 176.00 Z M 470.00 168.00 L 430.00 162.00 L 434.00 188.00 L 430.00 202.00 L 308.00 188.00 L 328.00 322.00 L 282.00 320.00 L 288.00 360.00 L 380.00 370.00 L 358.00 250.00 L 360.00 232.00 L 440.00 242.00 L 458.00 332.00 L 500.00 336.00 Z M 760.00 82.00 L 794.00 108.00 L 802.00 126.00 L 802.00 82.00 Z M 262.00 82.00 L 220.00 82.00 L 220.00 126.00 L 232.00 104.00 Z"/>
  <path fill="#2f383a" fill-rule="evenodd" d="M 624.00 838.00 L 594.00 920.00 L 610.00 920.00 L 616.00 904.00 L 648.00 904.00 L 654.00 920.00 L 670.00 920.00 L 640.00 838.00 Z M 630.00 858.00 L 644.00 888.00 L 640.00 892.00 L 620.00 890.00 Z M 532.00 838.00 L 532.00 850.00 L 554.00 852.00 L 554.00 920.00 L 568.00 920.00 L 568.00 854.00 L 572.00 850.00 L 592.00 850.00 L 592.00 838.00 Z M 440.00 838.00 L 440.00 920.00 L 454.00 920.00 L 456.00 864.00 L 496.00 920.00 L 514.00 920.00 L 514.00 838.00 L 500.00 838.00 L 498.00 894.00 L 458.00 838.00 Z M 368.00 838.00 L 368.00 920.00 L 420.00 920.00 L 420.00 908.00 L 384.00 906.00 L 386.00 884.00 L 418.00 884.00 L 418.00 874.00 L 386.00 874.00 L 384.00 852.00 L 420.00 850.00 L 420.00 838.00 Z M 278.00 838.00 L 306.00 920.00 L 324.00 920.00 L 352.00 838.00 L 336.00 838.00 L 316.00 898.00 L 294.00 840.00 Z M 704.00 836.00 L 690.00 842.00 L 684.00 850.00 L 684.00 870.00 L 694.00 880.00 L 716.00 888.00 L 724.00 900.00 L 716.00 910.00 L 704.00 910.00 L 686.00 900.00 L 680.00 912.00 L 698.00 922.00 L 720.00 922.00 L 734.00 914.00 L 738.00 890.00 L 728.00 878.00 L 706.00 870.00 L 698.00 856.00 L 708.00 848.00 L 732.00 856.00 L 736.00 844.00 L 726.00 838.00 Z M 820.00 722.00 L 820.00 804.00 L 836.00 804.00 L 838.00 772.00 L 850.00 776.00 L 866.00 804.00 L 882.00 804.00 L 864.00 774.00 L 880.00 754.00 L 880.00 740.00 L 874.00 728.00 L 862.00 722.00 Z M 836.00 734.00 L 858.00 734.00 L 866.00 746.00 L 864.00 754.00 L 858.00 760.00 L 838.00 760.00 Z M 610.00 722.00 L 610.00 804.00 L 626.00 804.00 L 626.00 722.00 Z M 522.00 722.00 L 550.00 802.00 L 568.00 804.00 L 596.00 722.00 L 580.00 722.00 L 560.00 782.00 L 538.00 722.00 Z M 450.00 722.00 L 450.00 804.00 L 466.00 804.00 L 468.00 772.00 L 476.00 772.00 L 496.00 804.00 L 512.00 804.00 L 494.00 772.00 L 510.00 754.00 L 506.00 730.00 L 492.00 722.00 Z M 466.00 734.00 L 488.00 734.00 L 496.00 746.00 L 494.00 754.00 L 488.00 760.00 L 468.00 760.00 Z M 378.00 722.00 L 378.00 804.00 L 430.00 804.00 L 430.00 792.00 L 394.00 790.00 L 396.00 768.00 L 428.00 768.00 L 428.00 756.00 L 396.00 756.00 L 394.00 734.00 L 430.00 732.00 L 430.00 722.00 Z M 344.00 722.00 L 302.00 724.00 L 302.00 804.00 L 318.00 802.00 L 320.00 774.00 L 344.00 774.00 L 356.00 766.00 L 360.00 738.00 Z M 320.00 732.00 L 334.00 732.00 L 344.00 740.00 L 346.00 752.00 L 338.00 762.00 L 318.00 762.00 Z M 212.00 722.00 L 212.00 784.00 L 218.00 796.00 L 240.00 806.00 L 272.00 798.00 L 280.00 784.00 L 280.00 722.00 L 266.00 722.00 L 266.00 778.00 L 254.00 792.00 L 238.00 792.00 L 226.00 780.00 L 226.00 722.00 Z M 742.00 722.00 L 730.00 728.00 L 718.00 744.00 L 718.00 780.00 L 738.00 802.00 L 752.00 806.00 L 774.00 804.00 L 786.00 798.00 L 798.00 784.00 L 802.00 772.00 L 800.00 746.00 L 776.00 722.00 Z M 754.00 732.00 L 770.00 734.00 L 786.00 754.00 L 782.00 780.00 L 766.00 792.00 L 746.00 790.00 L 734.00 778.00 L 730.00 766.00 L 736.00 744.00 Z M 664.00 720.00 L 650.00 728.00 L 646.00 750.00 L 656.00 762.00 L 678.00 770.00 L 686.00 778.00 L 686.00 786.00 L 680.00 792.00 L 664.00 792.00 L 648.00 784.00 L 644.00 796.00 L 658.00 804.00 L 678.00 806.00 L 698.00 796.00 L 702.00 778.00 L 690.00 760.00 L 668.00 752.00 L 660.00 740.00 L 668.00 732.00 L 696.00 738.00 L 700.00 728.00 L 686.00 720.00 Z M 156.00 720.00 L 142.00 730.00 L 140.00 752.00 L 152.00 764.00 L 172.00 770.00 L 180.00 784.00 L 172.00 792.00 L 158.00 792.00 L 142.00 784.00 L 138.00 796.00 L 152.00 804.00 L 172.00 806.00 L 192.00 794.00 L 194.00 774.00 L 186.00 762.00 L 160.00 752.00 L 154.00 740.00 L 162.00 732.00 L 176.00 732.00 L 188.00 738.00 L 192.00 726.00 L 180.00 720.00 Z"/>
</svg>
